<svg width="150" height="150" viewBox="0 0 150 150" fill="none" xmlns="http://www.w3.org/2000/svg">
<path d="M25.5 93.6663L47.5836 131.916H3.41635L25.5 93.6663Z" fill="currentColor" fill-opacity="0.8"/>
<path d="M50.5 46.6663L72.5836 84.9163H28.4164L50.5 46.6663Z" fill="currentColor"/>
<path d="M75.8337 -7.65408e-07L97.9174 38.25L53.7501 38.25L75.8337 -7.65408e-07Z" fill="currentColor" fill-opacity="0.5"/>
<path d="M53.75 42.7499L97.9173 42.7499L75.8337 80.9999L53.75 42.7499Z" fill="currentColor"/>
<path d="M101.5 46.6663L123.584 84.9163H79.4164L101.5 46.6663Z" fill="currentColor" fill-opacity="0.7"/>
<path d="M28.75 89.7499L72.9173 89.7499L50.8336 128L28.75 89.7499Z" fill="currentColor" fill-opacity="0.65"/>
<path d="M79.75 89.7499L123.917 89.7499L101.834 128L79.75 89.7499Z" fill="currentColor"/>
<path d="M127.5 93.6663L149.584 131.916H105.416L127.5 93.6663Z" fill="currentColor" fill-opacity="0.8"/>
<path d="M76.5 93.6663L98.5836 131.916H54.4164L76.5 93.6663Z" fill="currentColor"/>
</svg>